<svg id="Сгруппировать_3243" data-name="Сгруппировать 3243" xmlns="http://www.w3.org/2000/svg" width="150" height="31.33" viewBox="0 0 150 31.33">
  <g id="Сгруппировать_81" data-name="Сгруппировать 81" transform="translate(0 0)">
    <path id="Контур_1" data-name="Контур 1" d="M2.749,23.087q2.336,2,7.013,1.992,4.538,0,7.013-1.925A7.1,7.1,0,0,0,19.25,17.38a6.4,6.4,0,0,0-.757-3.162,5.542,5.542,0,0,0-2.316-2.2,10.047,10.047,0,0,0-1.8-.7c-.842-.259-5.035-1.4-5.461-1.515C6.58,9.23,5.1,8.451,5.087,7.078,5.206,4.4,7.7,4.19,9.074,4.19a5.65,5.65,0,0,1,3.368.893A3.132,3.132,0,0,1,13.758,7.7h4.665a7.663,7.663,0,0,0-2.474-5.571A9.718,9.718,0,0,0,9.486.2Q5.016.2,2.68,2.058A6.489,6.489,0,0,0,.342,7.352a6.06,6.06,0,0,0,2.624,5.356,16.4,16.4,0,0,0,4.675,1.581l1.858.4c3.223.785,5.075,1.781,5.015,3.374a2.594,2.594,0,0,1-1.1,2.2,5.928,5.928,0,0,1-3.231.757,6.417,6.417,0,0,1-3.791-.977,3.772,3.772,0,0,1-1.582-2.888H0a7.6,7.6,0,0,0,2.749,5.912" transform="translate(0 -0.202)" fill="#fff"/>
    <path id="Контур_2" data-name="Контур 2" d="M19.939,27.788a2.33,2.33,0,0,1-2.311,2.35H15.239v-17.2c.275-4.578,1.939-8.225,8.891-8.474A8.423,8.423,0,0,1,30.609,7.2a10.752,10.752,0,0,1,1.973,6.836,11.233,11.233,0,0,1-2.073,7.047,6.463,6.463,0,0,1-5.319,2.624,8.478,8.478,0,0,1-5.253-1.6C19.937,22.262,19.939,27.788,19.939,27.788Zm7.877-13.537c0-1.8-.331-5.6-4.008-5.6-3.492,0-3.869,3.709-3.869,5.6,0,4.78,2.717,5.385,4.008,5.385C27.288,19.637,27.816,16.094,27.816,14.251Z" transform="translate(4.99 1.192)" fill="#fff"/>
    <path id="Контур_3" data-name="Контур 3" d="M37.52,8.5c2.955-.038,3.413,2.476,3.506,3.714h-7.01S33.956,8.565,37.52,8.5Zm.206,11.069c-1.189-.058-3.458-.293-3.672-4.261H45.968v-1.43a10.754,10.754,0,0,0-2.2-6.891,8.236,8.236,0,0,0-6.393-2.476,7.667,7.667,0,0,0-6.119,2.543,10.2,10.2,0,0,0-2.133,6.873q0,4.608,2.2,7.082a7.665,7.665,0,0,0,6.119,2.543,8.762,8.762,0,0,0,5.364-1.581A7.522,7.522,0,0,0,45.7,17.566h-4.13c-.612,1.73-2.166,2.085-3.831,2Z" transform="translate(9.535 1.209)" fill="#fff"/>
    <path id="Контур_4" data-name="Контур 4" d="M54.683,17.575H59.2a7.889,7.889,0,0,1-8.054,5.98c-6.83,0-8.506-5.478-8.506-9.077s.638-9.747,8.242-9.962a7.783,7.783,0,0,1,8.181,5.98H54.252S53.784,8.437,50.921,8.5s-3.613,2.754-3.613,5.312.636,5.754,3.816,5.754C54.15,19.657,54.416,18.025,54.683,17.575Z" transform="translate(13.962 1.21)" fill="#fff"/>
    <path id="Контур_5" data-name="Контур 5" d="M60.68,11.032h2.827V6.215H60.685V3.121A2.206,2.206,0,0,0,58.417.783H55.941V20.995c0,2.108.818,3.368,2.587,3.368H60.68Z" transform="translate(18.317 -0.012)" fill="#fff"/>
    <path id="Контур_6" data-name="Контур 6" d="M66.622,23.083V13.666a4.138,4.138,0,0,1,.962-3.025,4.018,4.018,0,0,1,2.958-.962h1.581V4.8a16.375,16.375,0,0,0-4.3.49A9.074,9.074,0,0,0,64.765,6.8,7.425,7.425,0,0,0,62.6,9.721a11.315,11.315,0,0,0-.791,4.5v8.869Z" transform="translate(20.238 1.302)" fill="#fff"/>
    <path id="Контур_7" data-name="Контур 7" d="M70.6,4.819h4.813V16.506a2.962,2.962,0,0,0,3.162,3.162,3.007,3.007,0,0,0,3.23-3.028V7.093s.161-2.266,2.249-2.266h2.5V15.68c-.033.593.632,7.78-7.975,7.752-8.525,0-7.921-7.272-7.975-7.7Z" transform="translate(23.117 1.31)" fill="#fff"/>
    <path id="Контур_8" data-name="Контур 8" d="M99.659,23.252H94.894V11.5a2.913,2.913,0,0,0-3.248-3.182A2.988,2.988,0,0,0,88.464,11.5V23.252H83.632V12.481c0-3.13.927-5.044,2.448-6.288A8.959,8.959,0,0,1,91.5,4.465a13.992,13.992,0,0,1,3.109.345,6.549,6.549,0,0,1,2.764,1.381,6.115,6.115,0,0,1,2.448-1.277,11.527,11.527,0,0,1,2.938-.449c5.9-.032,8.266,2.671,8.462,3.538V23.258H108.5a2.315,2.315,0,0,1-2.35-2.35v-9.4c.012-1.331-.453-3.183-3.248-3.183a2.957,2.957,0,0,0-3.248,3.183Z" transform="translate(27.384 1.194)" fill="#fff"/>
    <path id="Контур_9" data-name="Контур 9" d="M105.436,7.119V22.362l10.041-7.62Z" transform="translate(34.523 2.063)" fill="#0099d8"/>
  </g>
</svg>
