<svg id="Сгруппировать_2974" data-name="Сгруппировать 2974" xmlns="http://www.w3.org/2000/svg" xmlns:xlink="http://www.w3.org/1999/xlink" width="150" height="31.337" viewBox="0 0 150 31.337">
  <defs>
    <clipPath id="clip-path">
      <rect id="Прямоугольник_419" data-name="Прямоугольник 419" width="150" height="31.337" fill="none"/>
    </clipPath>
  </defs>
  <g id="Сгруппировать_863" data-name="Сгруппировать 863" clip-path="url(#clip-path)">
    <path id="Контур_632" data-name="Контур 632" d="M218.15,347.243q2.336,1.995,7.012,1.993,4.539,0,7.013-1.924a7.1,7.1,0,0,0,2.474-5.775,6.4,6.4,0,0,0-.756-3.163,5.543,5.543,0,0,0-2.314-2.211,10.025,10.025,0,0,0-1.8-.7c-.844-.257-5.037-1.4-5.461-1.514-2.337-.569-3.82-1.348-3.831-2.73.121-2.673,2.613-2.887,3.988-2.887a5.656,5.656,0,0,1,3.369.894,3.1,3.1,0,0,1,1.314,2.616h4.667a7.64,7.64,0,0,0-2.475-5.571,9.716,9.716,0,0,0-6.463-1.925q-4.47,0-6.806,1.856a6.489,6.489,0,0,0-2.337,5.293,6.078,6.078,0,0,0,2.612,5.363,16.358,16.358,0,0,0,4.675,1.581l1.858.4c3.224.786,5.074,1.782,5.015,3.376a2.579,2.579,0,0,1-1.1,2.2,5.932,5.932,0,0,1-3.23.757,6.5,6.5,0,0,1-3.782-.963,3.774,3.774,0,0,1-1.581-2.888H215.4a7.6,7.6,0,0,0,2.75,5.913" transform="translate(-215.4 -324.35)" fill="#003057"/>
    <path id="Контур_633" data-name="Контур 633" d="M244.968,338.891c0-1.8-.329-5.6-4.006-5.6-3.492,0-3.869,3.708-3.869,5.6,0,4.781,2.718,5.389,4.007,5.389,3.339,0,3.868-3.543,3.868-5.389m-7.875,13.542a2.33,2.33,0,0,1-2.349,2.349H232.4v-17.2c.273-4.577,1.937-8.225,8.889-8.474a8.452,8.452,0,0,1,6.479,2.742,10.758,10.758,0,0,1,1.974,6.838,11.244,11.244,0,0,1-2.073,7.047,6.478,6.478,0,0,1-5.32,2.626,8.48,8.48,0,0,1-5.254-1.606c0,.157,0,5.682,0,5.682" transform="translate(-212.163 -323.444)" fill="#003057"/>
    <path id="Контур_634" data-name="Контур 634" d="M256.475,344.218c-1.19-.061-3.458-.294-3.667-4.262h11.913c0-.121,0-1.427,0-1.43a10.756,10.756,0,0,0-2.2-6.891,8.239,8.239,0,0,0-6.394-2.475,7.662,7.662,0,0,0-6.118,2.543,10.2,10.2,0,0,0-2.131,6.875q0,4.607,2.2,7.081a7.654,7.654,0,0,0,6.117,2.544,8.75,8.75,0,0,0,5.363-1.581,7.521,7.521,0,0,0,2.894-4.406h-4.139c-.61,1.727-2.167,2.083-3.842,2m-.206-11.069c2.953-.039,3.413,2.475,3.506,3.712h-7.012s-.059-3.646,3.506-3.712" transform="translate(-209.213 -323.433)" fill="#003057"/>
    <path id="Контур_635" data-name="Контур 635" d="M274.988,342.225h4.519a7.893,7.893,0,0,1-8.054,5.98c-6.825,0-8.506-5.479-8.506-9.077s.639-9.748,8.24-9.963c7.024-.1,8.181,5.98,8.181,5.98h-4.811s-.467-2.057-3.331-1.992-3.612,2.754-3.612,5.31.636,5.756,3.815,5.756c3.024.092,3.29-1.543,3.557-1.993" transform="translate(-206.343 -323.433)" fill="#003057"/>
    <path id="Контур_636" data-name="Контур 636" d="M282.515,335.254h2.826v-4.819h-2.819v-3.093A2.206,2.206,0,0,0,280.252,325h-2.474v20.212c0,2.108.817,3.369,2.587,3.369h2.151Z" transform="translate(-203.518 -324.225)" fill="#003057"/>
    <path id="Контур_637" data-name="Контур 637" d="M289.131,347.767v-9.418a4.127,4.127,0,0,1,.962-3.025,4.022,4.022,0,0,1,2.956-.962h1.582V329.48a16.654,16.654,0,0,0-4.3.482,9.034,9.034,0,0,0-3.06,1.512,7.428,7.428,0,0,0-2.165,2.921,11.322,11.322,0,0,0-.792,4.5v8.868Z" transform="translate(-202.273 -323.373)" fill="#003057"/>
    <path id="Контур_638" data-name="Контур 638" d="M294.124,329.5h4.813v11.687a2.963,2.963,0,0,0,3.162,3.163,3.005,3.005,0,0,0,3.229-3.029v-9.554s.163-2.268,2.25-2.268h2.5s0,10.751,0,10.855c-.033.592.631,7.78-7.974,7.751-8.525,0-7.92-7.273-7.975-7.7Z" transform="translate(-200.405 -323.368)" fill="#003057"/>
    <path id="Контур_639" data-name="Контур 639" d="M324.683,347.9h-4.767V336.152a2.912,2.912,0,0,0-3.249-3.179,2.982,2.982,0,0,0-3.176,3.179V347.9h-4.838V337.118c0-3.131.93-5.044,2.453-6.287a9.035,9.035,0,0,1,5.423-1.727,14,14,0,0,1,3.11.345,6.55,6.55,0,0,1,2.764,1.382,6.123,6.123,0,0,1,2.452-1.279,11.614,11.614,0,0,1,2.937-.449c5.9-.031,8.267,2.67,8.463,3.537V347.9h-2.731a2.313,2.313,0,0,1-2.348-2.349v-9.4c.012-1.332-.455-3.179-3.249-3.179a2.972,2.972,0,0,0-3.246,3.179Z" transform="translate(-197.638 -323.444)" fill="#003057"/>
    <path id="Контур_640" data-name="Контур 640" d="M332.965,332.068V347.31l10.042-7.619Z" transform="translate(-193.007 -322.88)" fill="#0099d8"/>
  </g>
</svg>
