<svg xmlns="http://www.w3.org/2000/svg" xmlns:xlink="http://www.w3.org/1999/xlink" width="26" height="26" viewBox="0 0 26 26">
  <defs>
    <clipPath id="clip-path">
      <rect id="Прямоугольник_1470" data-name="Прямоугольник 1470" width="26" height="26" rx="5" transform="translate(351 350)" fill="#fff"/>
    </clipPath>
  </defs>
  <g id="Группа_масок_253" data-name="Группа масок 253" transform="translate(-351 -350)" clip-path="url(#clip-path)">
    <g id="Twitter_Social_Icon_Rounded_Square_Color" transform="translate(351 350)">
      <g id="Dark_Blue">
        <path id="Контур_1215" data-name="Контур 1215" d="M22.75,26H3.25A3.251,3.251,0,0,1,0,22.75V3.25A3.251,3.251,0,0,1,3.25,0h19.5A3.251,3.251,0,0,1,26,3.25v19.5A3.251,3.251,0,0,1,22.75,26Z" fill="#1da1f2"/>
      </g>
      <g id="Logo__x2014__FIXED" transform="translate(4.882 6.396)">
        <path id="Контур_1216" data-name="Контур 1216" d="M9.984,19.6a9.422,9.422,0,0,0,9.483-9.483c0-.143,0-.286-.007-.429a6.79,6.79,0,0,0,1.664-1.729,6.755,6.755,0,0,1-1.918.527,3.353,3.353,0,0,0,1.469-1.846,6.63,6.63,0,0,1-2.119.806,3.334,3.334,0,0,0-5.765,2.281,3.684,3.684,0,0,0,.085.76,9.465,9.465,0,0,1-6.87-3.484,3.347,3.347,0,0,0,1.033,4.452,3.371,3.371,0,0,1-1.508-.416v.045A3.34,3.34,0,0,0,8.2,14.359a3.353,3.353,0,0,1-1.5.059,3.333,3.333,0,0,0,3.113,2.314,6.685,6.685,0,0,1-4.14,1.43,6.414,6.414,0,0,1-.793-.046,9.481,9.481,0,0,0,5.1,1.489" transform="translate(-4.882 -6.396)" fill="#fff"/>
      </g>
    </g>
  </g>
</svg>
